<mxfile host="Electron" modified="2024-05-29T14:26:50.588Z" agent="Mozilla/5.0 (Windows NT 10.0; Win64; x64) AppleWebKit/537.36 (KHTML, like Gecko) draw.io/24.4.8 Chrome/124.0.6367.207 Electron/30.0.6 Safari/537.36" etag="mW5t6X1LyYAyVWn3Om-4" version="24.4.8" type="device">
  <diagram name="Page-1" id="4YNNi3NzexPaqgfLfOFP">
    <mxGraphModel dx="1714" dy="1624" grid="1" gridSize="10" guides="1" tooltips="1" connect="1" arrows="1" fold="1" page="1" pageScale="1" pageWidth="850" pageHeight="1100" math="0" shadow="0">
      <root>
        <mxCell id="0" />
        <mxCell id="1" parent="0" />
        <mxCell id="D4lwPsTI3Pclu1fIJmD--15" style="edgeStyle=orthogonalEdgeStyle;curved=1;rounded=0;orthogonalLoop=1;jettySize=auto;html=1;entryX=1;entryY=0.5;entryDx=0;entryDy=0;" parent="1" source="D4lwPsTI3Pclu1fIJmD--9" target="D4lwPsTI3Pclu1fIJmD--10" edge="1">
          <mxGeometry relative="1" as="geometry" />
        </mxCell>
        <mxCell id="D4lwPsTI3Pclu1fIJmD--17" style="edgeStyle=orthogonalEdgeStyle;curved=1;rounded=0;orthogonalLoop=1;jettySize=auto;html=1;entryX=1;entryY=0.5;entryDx=0;entryDy=0;" parent="1" source="D4lwPsTI3Pclu1fIJmD--9" target="D4lwPsTI3Pclu1fIJmD--11" edge="1">
          <mxGeometry relative="1" as="geometry" />
        </mxCell>
        <mxCell id="D4lwPsTI3Pclu1fIJmD--18" style="edgeStyle=orthogonalEdgeStyle;curved=1;rounded=0;orthogonalLoop=1;jettySize=auto;html=1;entryX=1;entryY=0.5;entryDx=0;entryDy=0;" parent="1" source="D4lwPsTI3Pclu1fIJmD--9" target="D4lwPsTI3Pclu1fIJmD--13" edge="1">
          <mxGeometry relative="1" as="geometry" />
        </mxCell>
        <mxCell id="D4lwPsTI3Pclu1fIJmD--19" style="edgeStyle=orthogonalEdgeStyle;curved=1;rounded=0;orthogonalLoop=1;jettySize=auto;html=1;entryX=1;entryY=0.5;entryDx=0;entryDy=0;" parent="1" source="D4lwPsTI3Pclu1fIJmD--9" target="D4lwPsTI3Pclu1fIJmD--14" edge="1">
          <mxGeometry relative="1" as="geometry" />
        </mxCell>
        <mxCell id="D4lwPsTI3Pclu1fIJmD--34" style="edgeStyle=orthogonalEdgeStyle;curved=1;rounded=0;orthogonalLoop=1;jettySize=auto;html=1;entryX=0;entryY=0.5;entryDx=0;entryDy=0;" parent="1" source="D4lwPsTI3Pclu1fIJmD--9" target="D4lwPsTI3Pclu1fIJmD--20" edge="1">
          <mxGeometry relative="1" as="geometry" />
        </mxCell>
        <mxCell id="D4lwPsTI3Pclu1fIJmD--37" style="edgeStyle=orthogonalEdgeStyle;curved=1;rounded=0;orthogonalLoop=1;jettySize=auto;html=1;fontFamily=Helvetica;fontSize=12;fontColor=default;" parent="1" source="D4lwPsTI3Pclu1fIJmD--9" target="D4lwPsTI3Pclu1fIJmD--36" edge="1">
          <mxGeometry relative="1" as="geometry" />
        </mxCell>
        <mxCell id="D4lwPsTI3Pclu1fIJmD--38" style="edgeStyle=orthogonalEdgeStyle;curved=1;rounded=0;orthogonalLoop=1;jettySize=auto;html=1;entryX=0.5;entryY=1;entryDx=0;entryDy=0;fontFamily=Helvetica;fontSize=12;fontColor=default;" parent="1" source="D4lwPsTI3Pclu1fIJmD--9" target="D4lwPsTI3Pclu1fIJmD--35" edge="1">
          <mxGeometry relative="1" as="geometry" />
        </mxCell>
        <mxCell id="D4lwPsTI3Pclu1fIJmD--9" value="toko" style="rounded=1;arcSize=10;whiteSpace=wrap;html=1;align=center;" parent="1" vertex="1">
          <mxGeometry x="170" y="70" width="100" height="40" as="geometry" />
        </mxCell>
        <mxCell id="D4lwPsTI3Pclu1fIJmD--10" value="id" style="ellipse;whiteSpace=wrap;html=1;align=center;fontStyle=4;" parent="1" vertex="1">
          <mxGeometry x="10" y="-40" width="100" height="40" as="geometry" />
        </mxCell>
        <mxCell id="D4lwPsTI3Pclu1fIJmD--11" value="nama toko" style="ellipse;whiteSpace=wrap;html=1;align=center;" parent="1" vertex="1">
          <mxGeometry y="20" width="100" height="40" as="geometry" />
        </mxCell>
        <mxCell id="D4lwPsTI3Pclu1fIJmD--13" value="harga" style="ellipse;whiteSpace=wrap;html=1;align=center;" parent="1" vertex="1">
          <mxGeometry x="10" y="70" width="100" height="40" as="geometry" />
        </mxCell>
        <mxCell id="D4lwPsTI3Pclu1fIJmD--14" value="alamat" style="ellipse;whiteSpace=wrap;html=1;align=center;" parent="1" vertex="1">
          <mxGeometry x="10" y="120" width="100" height="40" as="geometry" />
        </mxCell>
        <mxCell id="D4lwPsTI3Pclu1fIJmD--26" style="edgeStyle=orthogonalEdgeStyle;curved=1;rounded=0;orthogonalLoop=1;jettySize=auto;html=1;entryX=0.5;entryY=1;entryDx=0;entryDy=0;exitX=0.5;exitY=0;exitDx=0;exitDy=0;" parent="1" source="D4lwPsTI3Pclu1fIJmD--20" target="D4lwPsTI3Pclu1fIJmD--24" edge="1">
          <mxGeometry relative="1" as="geometry" />
        </mxCell>
        <mxCell id="D4lwPsTI3Pclu1fIJmD--20" value="barang" style="rounded=1;arcSize=10;whiteSpace=wrap;html=1;align=center;" parent="1" vertex="1">
          <mxGeometry x="350" y="70" width="100" height="40" as="geometry" />
        </mxCell>
        <mxCell id="D4lwPsTI3Pclu1fIJmD--24" value="id" style="ellipse;whiteSpace=wrap;html=1;align=center;fontStyle=4;" parent="1" vertex="1">
          <mxGeometry x="470" y="-30" width="100" height="40" as="geometry" />
        </mxCell>
        <mxCell id="D4lwPsTI3Pclu1fIJmD--25" value="part numer" style="ellipse;whiteSpace=wrap;html=1;align=center;" parent="1" vertex="1">
          <mxGeometry x="10" y="230" width="100" height="40" as="geometry" />
        </mxCell>
        <mxCell id="D4lwPsTI3Pclu1fIJmD--59" style="edgeStyle=orthogonalEdgeStyle;curved=1;rounded=0;orthogonalLoop=1;jettySize=auto;html=1;entryX=0.5;entryY=0;entryDx=0;entryDy=0;fontFamily=Helvetica;fontSize=12;fontColor=default;" parent="1" source="D4lwPsTI3Pclu1fIJmD--27" target="D4lwPsTI3Pclu1fIJmD--48" edge="1">
          <mxGeometry relative="1" as="geometry" />
        </mxCell>
        <mxCell id="D4lwPsTI3Pclu1fIJmD--27" value="dioda" style="rounded=1;arcSize=10;whiteSpace=wrap;html=1;align=center;" parent="1" vertex="1">
          <mxGeometry x="90" y="460" width="100" height="40" as="geometry" />
        </mxCell>
        <mxCell id="D4lwPsTI3Pclu1fIJmD--31" value="id" style="ellipse;whiteSpace=wrap;html=1;align=center;fontStyle=4;" parent="1" vertex="1">
          <mxGeometry x="10" y="180" width="90" height="40" as="geometry" />
        </mxCell>
        <mxCell id="D4lwPsTI3Pclu1fIJmD--35" value="module" style="rounded=1;arcSize=10;whiteSpace=wrap;html=1;align=center;" parent="1" vertex="1">
          <mxGeometry x="170" y="-90" width="100" height="40" as="geometry" />
        </mxCell>
        <mxCell id="D4lwPsTI3Pclu1fIJmD--40" style="edgeStyle=orthogonalEdgeStyle;curved=1;rounded=0;orthogonalLoop=1;jettySize=auto;html=1;entryX=1;entryY=0.5;entryDx=0;entryDy=0;fontFamily=Helvetica;fontSize=12;fontColor=default;" parent="1" source="D4lwPsTI3Pclu1fIJmD--36" target="D4lwPsTI3Pclu1fIJmD--31" edge="1">
          <mxGeometry relative="1" as="geometry" />
        </mxCell>
        <mxCell id="D4lwPsTI3Pclu1fIJmD--41" style="edgeStyle=orthogonalEdgeStyle;curved=1;rounded=0;orthogonalLoop=1;jettySize=auto;html=1;entryX=1;entryY=0.5;entryDx=0;entryDy=0;fontFamily=Helvetica;fontSize=12;fontColor=default;exitX=0;exitY=0.5;exitDx=0;exitDy=0;" parent="1" source="D4lwPsTI3Pclu1fIJmD--46" target="D4lwPsTI3Pclu1fIJmD--25" edge="1">
          <mxGeometry relative="1" as="geometry" />
        </mxCell>
        <mxCell id="D4lwPsTI3Pclu1fIJmD--53" style="edgeStyle=orthogonalEdgeStyle;curved=1;rounded=0;orthogonalLoop=1;jettySize=auto;html=1;entryX=0.5;entryY=0;entryDx=0;entryDy=0;fontFamily=Helvetica;fontSize=12;fontColor=default;" parent="1" source="D4lwPsTI3Pclu1fIJmD--36" target="D4lwPsTI3Pclu1fIJmD--46" edge="1">
          <mxGeometry relative="1" as="geometry" />
        </mxCell>
        <mxCell id="D4lwPsTI3Pclu1fIJmD--54" style="edgeStyle=orthogonalEdgeStyle;curved=1;rounded=0;orthogonalLoop=1;jettySize=auto;html=1;entryX=0;entryY=0.5;entryDx=0;entryDy=0;fontFamily=Helvetica;fontSize=12;fontColor=default;" parent="1" source="D4lwPsTI3Pclu1fIJmD--36" target="D4lwPsTI3Pclu1fIJmD--45" edge="1">
          <mxGeometry relative="1" as="geometry" />
        </mxCell>
        <mxCell id="D4lwPsTI3Pclu1fIJmD--36" value="komponen" style="rounded=1;arcSize=10;whiteSpace=wrap;html=1;align=center;" parent="1" vertex="1">
          <mxGeometry x="170" y="200" width="100" height="40" as="geometry" />
        </mxCell>
        <mxCell id="D4lwPsTI3Pclu1fIJmD--60" style="edgeStyle=orthogonalEdgeStyle;curved=1;rounded=0;orthogonalLoop=1;jettySize=auto;html=1;entryX=0.5;entryY=0;entryDx=0;entryDy=0;fontFamily=Helvetica;fontSize=12;fontColor=default;" parent="1" source="D4lwPsTI3Pclu1fIJmD--42" target="D4lwPsTI3Pclu1fIJmD--47" edge="1">
          <mxGeometry relative="1" as="geometry" />
        </mxCell>
        <mxCell id="D4lwPsTI3Pclu1fIJmD--42" value="integrated circuit" style="rounded=1;arcSize=10;whiteSpace=wrap;html=1;align=center;" parent="1" vertex="1">
          <mxGeometry x="210" y="440" width="100" height="40" as="geometry" />
        </mxCell>
        <mxCell id="D4lwPsTI3Pclu1fIJmD--61" style="edgeStyle=orthogonalEdgeStyle;curved=1;rounded=0;orthogonalLoop=1;jettySize=auto;html=1;fontFamily=Helvetica;fontSize=12;fontColor=default;entryX=0;entryY=0.5;entryDx=0;entryDy=0;" parent="1" source="D4lwPsTI3Pclu1fIJmD--43" target="D4lwPsTI3Pclu1fIJmD--51" edge="1">
          <mxGeometry relative="1" as="geometry">
            <mxPoint x="460" y="450" as="targetPoint" />
          </mxGeometry>
        </mxCell>
        <mxCell id="D4lwPsTI3Pclu1fIJmD--64" style="edgeStyle=orthogonalEdgeStyle;curved=1;rounded=0;orthogonalLoop=1;jettySize=auto;html=1;fontFamily=Helvetica;fontSize=12;fontColor=default;" parent="1" source="D4lwPsTI3Pclu1fIJmD--43" target="D4lwPsTI3Pclu1fIJmD--63" edge="1">
          <mxGeometry relative="1" as="geometry" />
        </mxCell>
        <mxCell id="D4lwPsTI3Pclu1fIJmD--43" value="trnsistor" style="rounded=1;arcSize=10;whiteSpace=wrap;html=1;align=center;" parent="1" vertex="1">
          <mxGeometry x="350" y="410" width="100" height="40" as="geometry" />
        </mxCell>
        <mxCell id="D4lwPsTI3Pclu1fIJmD--55" style="edgeStyle=orthogonalEdgeStyle;curved=1;rounded=0;orthogonalLoop=1;jettySize=auto;html=1;entryX=0;entryY=0.5;entryDx=0;entryDy=0;fontFamily=Helvetica;fontSize=12;fontColor=default;" parent="1" source="D4lwPsTI3Pclu1fIJmD--45" target="D4lwPsTI3Pclu1fIJmD--49" edge="1">
          <mxGeometry relative="1" as="geometry" />
        </mxCell>
        <mxCell id="D4lwPsTI3Pclu1fIJmD--45" value="passive" style="rounded=1;arcSize=10;whiteSpace=wrap;html=1;align=center;" parent="1" vertex="1">
          <mxGeometry x="320" y="200" width="100" height="40" as="geometry" />
        </mxCell>
        <mxCell id="D4lwPsTI3Pclu1fIJmD--52" style="edgeStyle=orthogonalEdgeStyle;curved=1;rounded=0;orthogonalLoop=1;jettySize=auto;html=1;entryX=1;entryY=0.5;entryDx=0;entryDy=0;fontFamily=Helvetica;fontSize=12;fontColor=default;" parent="1" source="D4lwPsTI3Pclu1fIJmD--46" target="D4lwPsTI3Pclu1fIJmD--50" edge="1">
          <mxGeometry relative="1" as="geometry" />
        </mxCell>
        <mxCell id="D4lwPsTI3Pclu1fIJmD--56" style="edgeStyle=orthogonalEdgeStyle;curved=1;rounded=0;orthogonalLoop=1;jettySize=auto;html=1;fontFamily=Helvetica;fontSize=12;fontColor=default;" parent="1" source="D4lwPsTI3Pclu1fIJmD--46" target="D4lwPsTI3Pclu1fIJmD--27" edge="1">
          <mxGeometry relative="1" as="geometry" />
        </mxCell>
        <mxCell id="D4lwPsTI3Pclu1fIJmD--57" style="edgeStyle=orthogonalEdgeStyle;curved=1;rounded=0;orthogonalLoop=1;jettySize=auto;html=1;entryX=0.5;entryY=0;entryDx=0;entryDy=0;fontFamily=Helvetica;fontSize=12;fontColor=default;" parent="1" source="D4lwPsTI3Pclu1fIJmD--46" target="D4lwPsTI3Pclu1fIJmD--42" edge="1">
          <mxGeometry relative="1" as="geometry" />
        </mxCell>
        <mxCell id="D4lwPsTI3Pclu1fIJmD--58" style="edgeStyle=orthogonalEdgeStyle;curved=1;rounded=0;orthogonalLoop=1;jettySize=auto;html=1;fontFamily=Helvetica;fontSize=12;fontColor=default;" parent="1" source="D4lwPsTI3Pclu1fIJmD--46" target="D4lwPsTI3Pclu1fIJmD--43" edge="1">
          <mxGeometry relative="1" as="geometry" />
        </mxCell>
        <mxCell id="D4lwPsTI3Pclu1fIJmD--46" value="active" style="rounded=1;arcSize=10;whiteSpace=wrap;html=1;align=center;" parent="1" vertex="1">
          <mxGeometry x="170" y="310" width="100" height="40" as="geometry" />
        </mxCell>
        <mxCell id="D4lwPsTI3Pclu1fIJmD--47" value="id" style="ellipse;whiteSpace=wrap;html=1;align=center;fontStyle=4;" parent="1" vertex="1">
          <mxGeometry x="220" y="560" width="90" height="40" as="geometry" />
        </mxCell>
        <mxCell id="D4lwPsTI3Pclu1fIJmD--48" value="id" style="ellipse;whiteSpace=wrap;html=1;align=center;fontStyle=4;" parent="1" vertex="1">
          <mxGeometry x="-30" y="570" width="90" height="40" as="geometry" />
        </mxCell>
        <mxCell id="D4lwPsTI3Pclu1fIJmD--49" value="id" style="ellipse;whiteSpace=wrap;html=1;align=center;fontStyle=4;" parent="1" vertex="1">
          <mxGeometry x="475" y="150" width="90" height="40" as="geometry" />
        </mxCell>
        <mxCell id="D4lwPsTI3Pclu1fIJmD--50" value="id" style="ellipse;whiteSpace=wrap;html=1;align=center;fontStyle=4;" parent="1" vertex="1">
          <mxGeometry x="30" y="310" width="90" height="40" as="geometry" />
        </mxCell>
        <mxCell id="D4lwPsTI3Pclu1fIJmD--51" value="id" style="ellipse;whiteSpace=wrap;html=1;align=center;fontStyle=4;" parent="1" vertex="1">
          <mxGeometry x="540" y="440" width="90" height="40" as="geometry" />
        </mxCell>
        <mxCell id="D4lwPsTI3Pclu1fIJmD--63" value="trnsistor type" style="rounded=1;arcSize=10;whiteSpace=wrap;html=1;align=center;" parent="1" vertex="1">
          <mxGeometry x="390" y="520" width="100" height="40" as="geometry" />
        </mxCell>
      </root>
    </mxGraphModel>
  </diagram>
</mxfile>
